<?xml version="1.0" encoding="utf-8"?>
<!-- Generator: Adobe Illustrator 26.5.0, SVG Export Plug-In . SVG Version: 6.00 Build 0)  -->
<svg version="1.1" id="Layer_2_00000134956482729285431660000015338458821923398276_"
	 xmlns="http://www.w3.org/2000/svg" xmlns:xlink="http://www.w3.org/1999/xlink" x="0px" y="0px" viewBox="0 0 403.5 260.2"
	 style="enable-background:new 0 0 403.5 260.2;" xml:space="preserve">
<style type="text/css">
	.st0{fill:#FFFFFF;stroke:#FFFFFF;stroke-miterlimit:10;}
</style>
<path class="st0" d="M244.2,166.5L244.2,166.5l-13.3,6.6l0,0l-2.2-5.9l14.8-18.8c0,0-77.7,0.2-93.6,0.3c-15.9,0-78.3-2.6-69.5-7.6
	c8.8-4.9,50.3-16,89.2-14.2c30.1,1.4,81.3,11.5,81.3,11.5l10-10.7c0,0-50.2-12.3-91.3-11.4c-41.1,0.9-87.2,19.4-94.2,23.3
	c-7.1,3.8-46.5,26.2-26.5,45.9c20,19.7,70.7,21.5,126.2,21.8s114.3-23,121.4-29.1c8.1-8.7-8.7-24-8.7-24 M55.4,185.2l-0.3-12.5
	l14,4.2l0.5,12.8C69.7,189.7,55.4,185.2,55.4,185.2z M87.3,192.7l-0.8-12.9l13.4,2.6l0.9,12.8L87.3,192.7L87.3,192.7z M117.5,197.6
	l-0.7-12.6l13.8,1.6l1.1,12.7L117.5,197.6L117.5,197.6z M145.7,200.4l-1.2-12.6l13.6,0.7l1.5,12.8L145.7,200.4L145.7,200.4z
	 M173.2,201.1l-1.6-12.5l15.6-0.6l1.8,12.4L173.2,201.1z M203.5,199.1l-1.6-12.4l14.6-2l1.9,12.4L203.5,199.1L203.5,199.1z
	 M231.4,194.8l-2.2-12.4l15.5-3.4l1.4,12.6L231.4,194.8L231.4,194.8z M259.8,187.8l-0.7-13.1l13.1-5.3l0.8,13.5L259.8,187.8
	L259.8,187.8z"/>
<path class="st0" d="M268.5,1.4c0,0-68.5-7.9-131.5,13.6C74,36.5,53.4,55.9,41.3,70.6c-12.1,14.7-14.4,33.3-14.4,33.3L39.3,158
	c0,0,11.4-15.9,51.8-33c39.2-16.5,70.9-23.8,119.5-26.8c37.6-2.3,77.3-0.9,77.3-0.9L268.5,1.4z M185,13.4l2.8,11.7l-14.9,2.2
	l-3.1-11.6L185,13.4z M155.6,18.7l2.7,11.7l-15.8,4.8L139,23.6L155.6,18.7L155.6,18.7z M123.4,29.3l3.9,11.5L111.9,47l-3.8-11.5
	C108.1,35.5,123.4,29.3,123.4,29.3z M36.3,107.9l-2-11.4c2-8.3,5.1-12.3,10.9-18.8l2.1,15.4C43.9,95.4,40.3,100.3,36.3,107.9
	L36.3,107.9z M44.5,141.1l-3.7-14.8l12.9-8.3l3.4,14.4L44.5,141.1L44.5,141.1z M55,68.7l11-10.2l4.4,12.7L59.1,83
	C59.1,83,55,68.7,55,68.7z M71.5,124.4l-4.1-13.8l14.8-6.7l4.9,13.3L71.5,124.4L71.5,124.4z M83.1,62.1L79,50.2l15.3-8.3l3.9,11.7
	L83.1,62.1L83.1,62.1z M100.1,111.9l-4.6-13.4l15.2-5.5l4.3,13.5L100.1,111.9L100.1,111.9z M130.2,101.9l-4.5-13.4l16.5-4.2
	l4.3,13.5L130.2,101.9L130.2,101.9z M160.7,95l-4.2-13.9l14.9-2.1l3.9,13.8L160.7,95z M190.1,91l-3.7-13.8l15.3-1.2l3.3,13.8
	L190.1,91L190.1,91z M206.5,23.4l-3-11.8l16.2-0.7l2.8,11.9L206.5,23.4z M223.3,89l-3.6-14l14.8-0.2l3.5,14.2L223.3,89L223.3,89z
	 M237,11.1l18.4,0.8l2.5,12.2l-18.2-0.7L237,11.1L237,11.1z M254.3,89.5L251,74.8h17l3.1,15.5L254.3,89.5L254.3,89.5z"/>
<path class="st0" d="M26.9,141.3l2.6,10.9c0,0-19.7,3.8-19.4,17.7c0.1,7.1,7.1,24.7,38,31.8c30.9,7.1,77.7,18.5,128.3,14.4
	s93.9-7.4,114.5-18.8c20.6-11.5,24.4-14.7,24.4-22.4s-14.2-24.6-14.2-24.6l14.2-3.4c0,0,10,15.3,11.8,21.9
	c2.4,8.2,0.3,22.1-13.8,30.6S285,215.4,273,223.7c-13.2,9-25.3,24.4-39.1,29.7s-34.4,6.8-62.1,6.8s-53.3-1.8-66.8-6.5
	s-19.7-14.1-35.3-24.1c-15.6-10-37.7-21.8-46.2-26.2s-20.2-14.7-23-28.8c-1.8-9.1,2.1-19.1,10-25S26.9,141.3,26.9,141.3L26.9,141.3z
	"/>
<path class="st0" d="M229.1,178.1c0,0,35.9-21.5,51.8-29.2s61.2-33.8,83.6-50.2s41.8-42.6,38.9-46c-3.5-4.1-19.7,2.9-30,8
	c-10.5,5.1-45.6,24.5-61.5,35.6c-16.1,11.2-79.6,67.6-86.6,74.1L229.1,178.1L229.1,178.1z"/>
</svg>
