<?xml version="1.0" encoding="UTF-8"?><svg id="Layer_2" xmlns="http://www.w3.org/2000/svg" viewBox="0 0 403.55 260.18"><defs><style>.cls-1{fill:#231f20;}</style></defs><path class="cls-1" d="M244.23,166.49s0,0,0,0l-13.28,6.57h0s-2.16-5.88-2.16-5.88l14.76-18.83s-77.71,.24-93.6,.29c-15.88,.04-78.29-2.65-69.46-7.58,8.83-4.93,50.33-15.98,89.23-14.21,30.1,1.37,81.3,11.48,81.3,11.48l10.04-10.69s-50.18-12.26-91.34-11.38c-41.15,.88-87.17,19.43-94.23,23.25-7.06,3.83-46.51,26.2-26.52,45.92,19.99,19.73,70.67,21.49,126.23,21.78,55.56,.29,114.27-23.01,121.43-29.1,8.14-8.72-8.72-23.97-8.72-23.97m-232.53,31.05l-.26-12.49,14.02,4.21,.51,12.81-14.27-4.53Zm31.96,7.53l-.81-12.91,13.45,2.61,.89,12.82-13.53-2.53Zm30.14,4.85l-.66-12.59,13.77,1.61,1.07,12.66-14.17-1.68Zm28.23,2.83l-1.19-12.61,13.62,.68,1.48,12.8-13.92-.87Zm27.47,.69l-1.64-12.49,15.65-.62,1.8,12.44-15.81,.67Zm30.29-2l-1.62-12.45,14.56-1.99,1.9,12.41-14.83,2.02Zm27.94-4.28l-2.23-12.38,15.47-3.43,1.38,12.65-14.61,3.16Zm28.42-7.05l-.7-13.1,13.06-5.26,.81,13.49-13.17,4.87Z"/><path class="cls-1" d="M268.47,1.42s-68.49-7.89-131.48,13.59c-62.98,21.49-83.58,40.92-95.65,55.63-12.07,14.72-14.42,33.26-14.42,33.26l12.36,54.15s11.38-15.95,51.8-32.97c39.15-16.48,70.91-23.83,119.5-26.77,37.63-2.29,77.32-.94,77.32-.94L268.47,1.42Zm-83.5,11.95l2.78,11.71-14.9,2.23-3.14-11.61,15.26-2.33Zm-29.35,5.37l2.71,11.72-15.78,4.75-3.51-11.56,16.57-4.91Zm-32.25,10.56l3.88,11.47-15.33,6.27-3.84-11.55,15.29-6.19ZM36.28,107.9l-2-11.36c2.04-8.31,5.07-12.31,10.89-18.83l2.07,15.37c-3.33,2.32-6.97,7.2-10.96,14.83Zm8.18,33.16l-3.66-14.81,12.87-8.29,3.44,14.4-12.66,8.7Zm10.52-72.39l10.99-10.2,4.41,12.68-11.29,11.87-4.11-14.35Zm16.53,55.71l-4.08-13.76,14.75-6.7,4.92,13.26-15.58,7.2Zm11.58-62.27l-4.07-11.93,15.29-8.34,3.9,11.66-15.13,8.62Zm17.01,49.82l-4.57-13.39,15.21-5.47,4.29,13.47-14.93,5.4Zm30.1-10.07l-4.48-13.43,16.52-4.2,4.32,13.54-16.36,4.1Zm30.51-6.9l-4.22-13.9,14.85-2.07,3.87,13.75-14.5,2.22Zm29.43-3.92l-3.74-13.83,15.28-1.23,3.31,13.84-14.84,1.22Zm16.31-67.61l-3.02-11.8,16.22-.66,2.82,11.89-16.02,.57Zm16.8,65.54l-3.6-14.04,14.78-.16,3.53,14.16-14.71,.04Zm13.75-77.84l18.45,.81,2.49,12.19-18.23-.71-2.71-12.3Zm17.27,78.36l-3.24-14.71h16.96l3.13,15.51-16.85-.79Z"/><path class="cls-1" d="M26.91,141.27l2.65,10.89s-19.72,3.83-19.43,17.66c.15,7.06,7.06,24.72,37.97,31.79,30.9,7.06,77.7,18.54,128.33,14.42s93.89-7.36,114.49-18.84c20.6-11.48,24.43-14.72,24.43-22.37s-14.23-24.63-14.23-24.63l14.17-3.43s9.96,15.31,11.83,21.88c2.35,8.24,.29,22.07-13.83,30.61s-28.26,16.19-40.32,24.43c-13.24,9.04-25.31,24.43-39.15,29.73s-34.44,6.77-62.1,6.77-53.27-1.77-66.81-6.48c-13.54-4.71-19.72-14.13-35.32-24.13-15.6-10.01-37.67-21.78-46.21-26.2S3.17,188.71,.42,174.53c-1.77-9.12,2.06-19.13,10.01-25.02s16.48-8.24,16.48-8.24Z"/><path class="cls-1" d="M229.05,178.1s35.88-21.52,51.77-29.17c15.89-7.65,61.22-33.75,83.59-50.23,22.37-16.48,41.78-42.6,38.85-46.01-3.53-4.12-19.72,2.94-30.02,7.95-10.45,5.07-45.57,24.51-61.51,35.61-16.11,11.22-79.58,67.58-86.64,74.05l3.96,7.81Z"/></svg>